<?xml version="1.0" encoding="UTF-8"?>
<svg version="1.1" xmlns="http://www.w3.org/2000/svg" width="227" height="257">
<path d="M0 0 C1.0098999 0.48903809 2.0197998 0.97807617 3.06030273 1.48193359 C25.64321773 12.85749706 41.50427276 32.63655629 49.8125 56.25 C58.47482183 82.92666094 55.61337074 110.77649366 42.97070312 135.58203125 C39.79434485 141.55477223 36.04171036 146.97016475 31.8125 152.25 C31.33425781 152.88035156 30.85601562 153.51070312 30.36328125 154.16015625 C19.39527858 167.95658368 2.35515165 177.81814704 -14.1875 183.25 C-15.42242187 183.66378906 -16.65734375 184.07757813 -17.9296875 184.50390625 C-36.33226973 190.01287103 -58.03064023 189.33387473 -76.1875 183.25 C-77.14221191 182.93651611 -77.14221191 182.93651611 -78.11621094 182.61669922 C-92.50995829 177.77648443 -104.31264584 169.80051641 -115.1875 159.25 C-115.86039063 158.65058594 -116.53328125 158.05117187 -117.2265625 157.43359375 C-128.40903018 147.11988352 -135.3605638 133.48040098 -140.1875 119.25 C-140.52418701 118.28151123 -140.52418701 118.28151123 -140.86767578 117.29345703 C-148.91703319 93.07125411 -145.42798664 65.19025966 -134.4609375 42.51953125 C-131.06411921 35.90600642 -126.810152 30.05068267 -122.1875 24.25 C-121.55328125 23.43273438 -120.9190625 22.61546875 -120.265625 21.7734375 C-104.22201705 2.37027062 -79.81302491 -8.54974598 -55.1875 -11.375 C-35.17386675 -13.08158888 -17.84277424 -8.73483237 0 0 Z M-114.1875 21.25 C-114.98800781 22.04019531 -115.78851563 22.83039062 -116.61328125 23.64453125 C-132.4126099 40.09875435 -141.30109346 63.01142236 -141.375 85.75 C-141.32826473 87.58380293 -141.27221902 89.41755899 -141.1875 91.25 C-134.77812583 93.47934754 -127.90145243 94.76934418 -121.4375 92.125 C-118.48509495 89.66466246 -115.84340371 87.02943411 -113.1875 84.25 C-115.38180373 91.62128379 -118.54390397 98.12022854 -122.22265625 104.8515625 C-124.60131177 109.30105026 -124.60131177 109.30105026 -125.078125 114.234375 C-124.36537384 116.42663516 -124.36537384 116.42663516 -122.1875 117.25 C-116.20316697 117.69013804 -111.27961775 116.39377214 -105.625 114.6875 C-104.7189502 114.42372559 -103.81290039 114.15995117 -102.87939453 113.88818359 C-97.98979985 112.44858619 -93.14005558 110.91686111 -88.30859375 109.29296875 C-86.86625366 108.81355835 -86.86625366 108.81355835 -85.39477539 108.32446289 C-83.56193884 107.71004161 -81.73383887 107.08122486 -79.91186523 106.43530273 C-72.37933126 103.90589625 -64.33376294 102.49485196 -56.875 105.9375 C-50.4866734 109.94743882 -45.1705178 115.55625182 -39.75585938 120.75830078 C-37.25925541 123.13287274 -34.66418058 125.38485244 -32.05078125 127.62890625 C-30.65397323 128.84415851 -29.27995609 130.08569018 -27.91796875 131.33984375 C-22.16958654 136.76065267 -22.16958654 136.76065267 -15.1875 140.25 C-11.41373449 140.03384744 -11.41373449 140.03384744 -8.1875 139.25 C-4.95152718 132.13085979 -5.04610518 124.82473221 -5.08984375 117.16015625 C-5.0912587 116.21563095 -5.09267365 115.27110565 -5.09413147 114.29795837 C-5.0996964 111.30277237 -5.11224233 108.30766313 -5.125 105.3125 C-5.13001954 103.27278754 -5.13458165 101.23307391 -5.13867188 99.19335938 C-5.14965433 94.21221034 -5.1668946 89.23111815 -5.1875 84.25 C-4.09284424 83.88237549 -2.99818848 83.51475098 -1.87036133 83.13598633 C2.20688516 81.76234126 6.2772867 80.36930936 10.34594727 78.97045898 C12.10456815 78.36882978 13.86497887 77.77240533 15.62719727 77.18139648 C18.16656229 76.32872633 20.69880548 75.45726515 23.23046875 74.58203125 C24.40575386 74.19420219 24.40575386 74.19420219 25.6047821 73.79853821 C30.40103674 72.11495455 33.52235541 70.30788566 36.8125 66.25 C37.22952374 61.10670716 32.82772186 57.03506574 29.8125 53.25 C34.7625 53.91 39.7125 54.57 44.8125 55.25 C41.01827144 40.83193146 32.08287072 29.64658111 21.8125 19.25 C20.94044922 18.26966797 20.94044922 18.26966797 20.05078125 17.26953125 C6.55889193 2.41825762 -16.3035752 -6.5006485 -35.98535156 -7.95703125 C-66.23401665 -9.36910631 -92.81825464 -0.36593218 -114.1875 21.25 Z " fill="#008FF2" transform="translate(159.1875,11.75)"/>
<path d="M0 0 C2.36779711 2.36779711 1.98454339 7.8923596 2.03027344 11.16943359 C1.9787596 14.08392818 1.90299247 16.99559921 1.78515625 19.90820312 C1.69312819 24.54725383 1.92358685 27.45910878 5 31 C11.11662803 35.60930313 18.29313329 38.82044442 25.109375 42.25 C36.66848404 48.19680851 36.66848404 48.19680851 39.1875 53.5 C38.96523642 56.46351443 38.05676722 57.69164952 35.93237305 59.72021484 C31.46890358 62.67631174 25.92634226 63.67940662 20.8125 65.0625 C18.44004478 65.70559709 16.07127876 66.36251119 13.70703125 67.03515625 C12.6600708 67.3175415 11.61311035 67.59992676 10.53442383 67.89086914 C7.97114561 68.78586893 7.97114561 68.78586893 6.65332031 70.62866211 C5.70994209 74.05281483 5.77516076 77.38660467 5.83984375 80.90625 C5.84504532 81.66796509 5.85024689 82.42968018 5.85560608 83.21447754 C5.87338004 85.64318132 5.90453882 88.07145858 5.9375 90.5 C5.96516767 92.92849976 5.98988289 95.35693742 6.00868225 97.78552246 C6.02088421 99.29477373 6.03843337 100.8039937 6.06199646 102.31311035 C6.09410232 105.69291452 6.06856215 108.77075386 5 112 C-1.0800077 112.77948817 -5.15618827 110.37367238 -10 107 C-11.85533741 105.35211593 -13.55723369 103.63059393 -15.2578125 101.82421875 C-22.11024738 94.64913559 -31.11903024 85.52441571 -41.3828125 84.7421875 C-48.37456526 84.79772798 -55.0154411 87.45417578 -61.625 89.51171875 C-76.88184785 94.05907608 -76.88184785 94.05907608 -83 91 C-82.52274082 85.23560396 -80.90874637 81.27372787 -78 76.3125 C-77.60498291 75.61914551 -77.20996582 74.92579102 -76.80297852 74.21142578 C-73.5417862 68.61621132 -69.81506004 63.61523403 -65.65234375 58.6484375 C-63.65688864 55.45004846 -63.49562036 53.70719037 -64 50 C-67.01753597 44.13044692 -73.54320982 39.97443167 -78.609375 36.015625 C-81 34 -81 34 -83 31 C-83.125 28.3125 -83.125 28.3125 -83 26 C-79.60936974 24.30468487 -75.73914341 24.76025966 -72.00390625 24.67578125 C-70.14643816 24.61666921 -68.28901682 24.55607283 -66.43164062 24.49414062 C-63.50919794 24.39966353 -60.58765593 24.31302342 -57.66430664 24.25219727 C-41.86072237 24.03035262 -41.86072237 24.03035262 -28 17 C-27.36860107 16.52989502 -26.73720215 16.05979004 -26.08666992 15.57543945 C-24.43278701 14.27346646 -22.87051146 12.91453371 -21.3125 11.5 C-20.22017016 10.54264802 -19.12642355 9.58691008 -18.03125 8.6328125 C-17.515625 8.18067383 -17 7.72853516 -16.46875 7.26269531 C-6.17821192 -1.5841569 -6.17821192 -1.5841569 0 0 Z " fill="#5F8099" transform="translate(138,25)"/>
<path d="M0 0 C0.66 0 1.32 0 2 0 C2.33 0.99 2.66 1.98 3 3 C3.99 3.99 3.99 3.99 5 5 C4.01 5.33 3.02 5.66 2 6 C2 7.32 2 8.64 2 10 C-0.31 9.34 -2.62 8.68 -5 8 C-5 7.67 -5 7.34 -5 7 C-7.97 7 -10.94 7 -14 7 C-13.01 8.98 -13.01 8.98 -12 11 C-12.07193821 15.02853967 -12.36932053 17.22690903 -14.9375 20.375 C-19.19433637 22.6337295 -23.23939792 22.81512225 -28 23 C-28.99 27.455 -28.99 27.455 -30 32 C-20.1 32 -10.2 32 0 32 C0 32.66 0 33.32 0 34 C-69.96 34 -139.92 34 -212 34 C-212 34.66 -212 35.32 -212 36 C-213.98 36.66 -215.96 37.32 -218 38 C-218.103125 37.360625 -218.20625 36.72125 -218.3125 36.0625 C-218.539375 35.381875 -218.76625 34.70125 -219 34 C-219.99 33.67 -220.98 33.34 -222 33 C-220.35 31.35 -218.7 29.7 -217 28 C-214.525 28.99 -214.525 28.99 -212 30 C-212 30.66 -212 31.32 -212 32 C-209.03 31.67 -206.06 31.34 -203 31 C-203.495 30.236875 -203.99 29.47375 -204.5 28.6875 C-206 26 -206 26 -206 23 C-204.72125 22.938125 -203.4425 22.87625 -202.125 22.8125 C-201.04605469 22.76029297 -201.04605469 22.76029297 -199.9453125 22.70703125 C-199.30335938 22.80371094 -198.66140625 22.90039062 -198 23 C-197.34 23.99 -196.68 24.98 -196 26 C-195.01 26 -194.02 26 -193 26 C-193 25.01 -193 24.02 -193 23 C-194.70150385 21.59964954 -194.70150385 21.59964954 -196.875 20.4375 C-199.27165749 19.05877768 -201.03227554 17.96772446 -203 16 C-203.34490322 11.94738713 -203.30163882 10.45245824 -201 7 C-206.28 6.67 -211.56 6.34 -217 6 C-217 5.34 -217 4.68 -217 4 C-215.36664389 3.99503478 -215.36664389 3.99503478 -213.70029068 3.98996925 C-187.22786251 3.90904283 -160.75549268 3.81674816 -134.2831459 3.71247292 C-121.48141937 3.66231089 -108.67969936 3.6158684 -95.87792969 3.578125 C-84.72236486 3.54522573 -73.5668501 3.50540597 -62.41134048 3.45720994 C-56.50238106 3.43192443 -50.59345496 3.4101492 -44.68445587 3.39665604 C-39.12609056 3.38385434 -33.56783934 3.36182035 -28.00953674 3.33261681 C-25.96650676 3.32352622 -23.9234584 3.31784736 -21.88040924 3.31578636 C-19.09659494 3.31247429 -16.31310619 3.29702545 -13.52935791 3.2784729 C-12.71612824 3.28040763 -11.90289856 3.28234237 -11.06502557 3.28433573 C-6.73176054 3.24099698 -3.18194024 3.18194024 0 0 Z M-184 6 C-183.34 8.31 -182.68 10.62 -182 13 C-184.64 13 -187.28 13 -190 13 C-190.33 12.01 -190.66 11.02 -191 10 C-192.32 10.33 -193.64 10.66 -195 11 C-192.70800212 13.46830541 -190.76699898 15.13249077 -187.8125 16.8125 C-185 19 -185 19 -184 22.5 C-184 25.85486459 -184.10845363 27.31201306 -186 30 C-186.66 30.66 -187.32 31.32 -188 32 C-185.03 32 -182.06 32 -179 32 C-178.32944715 29.06333774 -177.66340947 26.12577641 -177 23.1875 C-176.71382812 21.93743164 -176.71382812 21.93743164 -176.421875 20.66210938 C-176.24140625 19.85966797 -176.0609375 19.05722656 -175.875 18.23046875 C-175.70742187 17.49207764 -175.53984375 16.75368652 -175.3671875 15.99291992 C-174.90940192 13.84602052 -174.90940192 13.84602052 -175 11 C-176.98 11 -178.96 11 -181 11 C-181 9.35 -181 7.7 -181 6 C-181.99 6 -182.98 6 -184 6 Z M-159 6 C-159.33 7.32 -159.66 8.64 -160 10 C-162.31 10.33 -164.62 10.66 -167 11 C-168.32 17.93 -169.64 24.86 -171 32 C-166.05472055 31.60161748 -166.05472055 31.60161748 -164.42260742 28.80688477 C-163.98795166 27.86127686 -163.5532959 26.91566895 -163.10546875 25.94140625 C-162.62529297 24.91595703 -162.14511719 23.89050781 -161.65039062 22.83398438 C-161.16763672 21.75439453 -160.68488281 20.67480469 -160.1875 19.5625 C-159.68541016 18.48677734 -159.18332031 17.41105469 -158.66601562 16.30273438 C-156.06975711 11.34560667 -156.06975711 11.34560667 -155 6 C-156.32 6 -157.64 6 -159 6 Z M-143 6 C-142.89013032 9.27152618 -142.7595003 12.54190114 -142.625 15.8125 C-142.5940625 16.74126953 -142.563125 17.67003906 -142.53125 18.62695312 C-142.49257812 19.51962891 -142.45390625 20.41230469 -142.4140625 21.33203125 C-142.3826416 22.15421143 -142.3512207 22.9763916 -142.31884766 23.82348633 C-142.11626378 26.28952937 -142.11626378 26.28952937 -140 29 C-139.32667007 25.91808296 -138.66251141 22.8342592 -138 19.75 C-137.80921875 18.87730469 -137.6184375 18.00460938 -137.421875 17.10546875 C-137.24140625 16.26113281 -137.0609375 15.41679687 -136.875 14.546875 C-136.70742187 13.77182617 -136.53984375 12.99677734 -136.3671875 12.19824219 C-135.89016383 9.71389326 -135.89016383 9.71389326 -136 6 C-138.31 6 -140.62 6 -143 6 Z M-117 6 C-116.89300781 6.61488281 -116.78601563 7.22976562 -116.67578125 7.86328125 C-116.55589844 8.67152344 -116.43601562 9.47976562 -116.3125 10.3125 C-116.12107422 11.51326172 -116.12107422 11.51326172 -115.92578125 12.73828125 C-115.95027344 13.48464844 -115.97476563 14.23101562 -116 15 C-116.72703125 15.66515625 -116.72703125 15.66515625 -117.46875 16.34375 C-119.93201051 19.00809301 -119.28426451 21.67172288 -119.1875 25.1875 C-119.16042969 26.45980469 -119.13335937 27.73210937 -119.10546875 29.04296875 C-119.07066406 30.01878906 -119.03585938 30.99460938 -119 32 C-117.02 32 -115.04 32 -113 32 C-114.32 29.03 -115.64 26.06 -117 23 C-114.36 23 -111.72 23 -109 23 C-108.34 24.32 -107.68 25.64 -107 27 C-105.68 26.67 -104.36 26.34 -103 26 C-103.36492154 23.32580932 -103.665919 22.2671208 -105.8125 20.55078125 C-106.8953125 19.93783203 -106.8953125 19.93783203 -108 19.3125 C-111.98734177 17.01265823 -111.98734177 17.01265823 -113 16 C-113.2632246 12.05163095 -113.08997373 9.39620731 -111 6 C-112.98 6 -114.96 6 -117 6 Z M-83 6 C-84.10228696 10.40914783 -84.07654536 14.48382401 -84 19 C-81.2946129 14.94191935 -79 10.95110601 -79 6 C-80.32 6 -81.64 6 -83 6 Z M-70 6 C-70.33 10.62 -70.66 15.24 -71 20 C-69.37723842 17.56585763 -68.38255208 15.68680554 -67.375 13 C-67.11460937 12.319375 -66.85421875 11.63875 -66.5859375 10.9375 C-65.85526413 8.85876694 -65.85526413 8.85876694 -66 6 C-67.32 6 -68.64 6 -70 6 Z M-57 6 C-64.43446966 18.50163034 -64.43446966 18.50163034 -68 32 C-66.0758479 31.884786 -66.0758479 31.884786 -64 31 C-62.42907172 28.76724691 -62.42907172 28.76724691 -61.203125 25.94140625 C-60.71972656 24.91595703 -60.23632812 23.89050781 -59.73828125 22.83398438 C-59.24714844 21.75439453 -58.75601563 20.67480469 -58.25 19.5625 C-57.74339844 18.48677734 -57.23679688 17.41105469 -56.71484375 16.30273438 C-54.08768516 11.34894396 -54.08768516 11.34894396 -53 6 C-54.32 6 -55.64 6 -57 6 Z M-41 6 C-40.86004486 9.20861774 -40.71197743 12.41681288 -40.5625 15.625 C-40.52318359 16.52863281 -40.48386719 17.43226563 -40.44335938 18.36328125 C-40.22421542 22.98216146 -39.8991149 27.45153636 -39 32 C-37.1463549 29.21953235 -36.58580942 27.84381975 -35.9296875 24.69140625 C-35.75566406 23.86189453 -35.58164063 23.03238281 -35.40234375 22.17773438 C-35.22832031 21.31470703 -35.05429688 20.45167969 -34.875 19.5625 C-34.69324219 18.70333984 -34.51148438 17.84417969 -34.32421875 16.95898438 C-33.54180648 13.16752042 -33 9.90047178 -33 6 C-35.64 6 -38.28 6 -41 6 Z M-95 6 C-94.34 8.31 -93.68 10.62 -93 13 C-95.64 13 -98.28 13 -101 13 C-101.33 12.01 -101.66 11.02 -102 10 C-103.32 10.33 -104.64 10.66 -106 11 C-103.70800212 13.46830541 -101.76699898 15.13249077 -98.8125 16.8125 C-96 19 -96 19 -95 22.5 C-95 25.85486459 -95.10845363 27.31201306 -97 30 C-97.66 30.66 -98.32 31.32 -99 32 C-96.36 32 -93.72 32 -91 32 C-91 23.42 -91 14.84 -91 6 C-92.32 6 -93.64 6 -95 6 Z M-129 11 C-129.33 12.65 -129.66 14.3 -130 16 C-128.35 16 -126.7 16 -125 16 C-124.34 14.68 -123.68 13.36 -123 12 C-124.06645115 10.70366379 -124.06645115 10.70366379 -126.5625 10.9375 C-127.366875 10.958125 -128.17125 10.97875 -129 11 Z M-26 11 C-26 12.65 -26 14.3 -26 16 C-24.35 16 -22.7 16 -21 16 C-21 14.35 -21 12.7 -21 11 C-22.65 11 -24.3 11 -26 11 Z M-151 14 C-151.66 15.98 -152.32 17.96 -153 20 C-152.01 20 -151.02 20 -150 20 C-150 18.02 -150 16.04 -150 14 C-150.33 14 -150.66 14 -151 14 Z M-49 14 C-49.66 15.98 -50.32 17.96 -51 20 C-50.01 20 -49.02 20 -48 20 C-48 18.02 -48 16.04 -48 14 C-48.33 14 -48.66 14 -49 14 Z M-78 19 C-79.65 23.29 -81.3 27.58 -83 32 C-81.02 32 -79.04 32 -77 32 C-77 27.71 -77 23.42 -77 19 C-77.33 19 -77.66 19 -78 19 Z M-131 22 C-131.66 25.3 -132.32 28.6 -133 32 C-131.02 32 -129.04 32 -127 32 C-126.67 28.7 -126.34 25.4 -126 22 C-127.65 22 -129.3 22 -131 22 Z M-156 27 C-156.66 28.65 -157.32 30.3 -158 32 C-155.03 32 -152.06 32 -149 32 C-149.33 30.35 -149.66 28.7 -150 27 C-151.98 27 -153.96 27 -156 27 Z M-54 27 C-54.66 28.65 -55.32 30.3 -56 32 C-53.03 32 -50.06 32 -47 32 C-47.33 30.35 -47.66 28.7 -48 27 C-49.98 27 -51.96 27 -54 27 Z " fill="#7BB7D2" transform="translate(222,214)"/>
<path d="M0 0 C2.06309376 0.11478413 4.12548354 0.24226198 6.1875 0.375 C7.33605469 0.44460937 8.48460937 0.51421875 9.66796875 0.5859375 C12.85643531 0.98215961 15.1768785 1.48219274 18 3 C21.16059746 9.32119491 22.01559921 16.05128855 23 23 C21.88625 23.4125 20.7725 23.825 19.625 24.25 C16.56192371 25.39394413 13.53399806 26.60043259 10.51171875 27.84765625 C4.49679678 30.25873373 -1.63655157 32.23392106 -7.8125 34.1875 C-8.91787109 34.54263672 -10.02324219 34.89777344 -11.16210938 35.26367188 C-15.75935948 36.72756964 -20.24828624 38.13060637 -25 39 C-24.9278125 40.23105469 -24.855625 41.46210937 -24.78125 42.73046875 C-24.13468094 54.82119536 -23.86765055 66.90435979 -23.82275391 79.01065063 C-23.81594773 80.66299184 -23.80572405 82.31532269 -23.79199219 83.96762085 C-23.77396643 86.32226486 -23.76983157 88.67654452 -23.76953125 91.03125 C-23.7588134 92.08171257 -23.7588134 92.08171257 -23.74787903 93.15339661 C-23.77293557 98.6554891 -24.86871616 103.40470177 -27.0625 108.4375 C-29.68130926 110.54944295 -31.9833702 110.86275289 -35.30078125 110.67578125 C-46.56311305 107.85612365 -55.45225756 96.89214109 -63.17578125 88.8671875 C-69.03631432 82.83430795 -75.4849489 77.47926486 -82.0625 72.25 C-82.63548828 71.78207031 -83.20847656 71.31414062 -83.79882812 70.83203125 C-89.37774578 66.40152971 -94.9421366 63.30117546 -102.25341797 63.67431641 C-113.12183296 64.9630689 -124.02845693 69.603271 -134.375 73.125 C-154.58 80 -154.58 80 -161 80 C-161.81974263 77.96123051 -162.6304807 75.91883925 -163.4375 73.875 C-163.88996094 72.73804688 -164.34242188 71.60109375 -164.80859375 70.4296875 C-165.9415635 67.16822048 -166.83574313 64.44939429 -167 61 C-165.671875 58.54296875 -165.671875 58.54296875 -163.75 56.1875 C-160.30025604 51.64981284 -158.39532178 47.50155444 -157 42 C-161.78018792 44.64029329 -161.78018792 44.64029329 -166.25 47.75 C-168 49 -168 49 -171 49 C-171 45.7 -171 42.4 -171 39 C-169.83082031 39.03480469 -168.66164062 39.06960937 -167.45703125 39.10546875 C-165.90886859 39.13361716 -164.36069032 39.16091619 -162.8125 39.1875 C-162.04357422 39.21263672 -161.27464844 39.23777344 -160.48242188 39.26367188 C-153.73388855 39.35056286 -150.21627066 37.24965059 -145.1875 32.8125 C-144.58292969 32.28269531 -143.97835937 31.75289062 -143.35546875 31.20703125 C-142.90816406 30.80871094 -142.46085937 30.41039063 -142 30 C-142.61061635 33.84640562 -143.76631818 36.90096471 -145.50390625 40.37890625 C-146.24350586 41.88420898 -146.24350586 41.88420898 -146.99804688 43.41992188 C-148.04335014 45.51966339 -149.09023273 47.6186194 -150.13867188 49.71679688 C-150.63044922 50.71904297 -151.12222656 51.72128906 -151.62890625 52.75390625 C-152.3106189 54.12011108 -152.3106189 54.12011108 -153.00610352 55.51391602 C-154.24747849 58.17279807 -154.24747849 58.17279807 -154 62 C-148.16893117 64.91553442 -141.27597364 62.19925036 -135.4375 60.4375 C-134.5314502 60.17372559 -133.62540039 59.90995117 -132.69189453 59.63818359 C-127.80229985 58.19858619 -122.95255558 56.66686111 -118.12109375 55.04296875 C-117.15953369 54.72336182 -116.19797363 54.40375488 -115.20727539 54.07446289 C-113.37443884 53.46004161 -111.54633887 52.83122486 -109.72436523 52.18530273 C-102.19183126 49.65589625 -94.14626294 48.24485196 -86.6875 51.6875 C-80.2991734 55.69743882 -74.9830178 61.30625182 -69.56835938 66.50830078 C-67.07175541 68.88287274 -64.47668058 71.13485244 -61.86328125 73.37890625 C-60.46647323 74.59415851 -59.09245609 75.83569018 -57.73046875 77.08984375 C-50.50095886 83.84747001 -50.50095886 83.84747001 -41.125 86.1875 C-39.578125 86.0946875 -39.578125 86.0946875 -38 86 C-35.33885808 74.67739617 -35.77443634 63.30343587 -35.875 51.75 C-35.88505057 49.73307736 -35.89417274 47.71614988 -35.90234375 45.69921875 C-35.92419105 40.79935762 -35.95860636 35.89973339 -36 31 C-30.3980765 28.68952295 -24.76805524 26.54049695 -19.0390625 24.5625 C-17.82605469 24.14226562 -16.61304688 23.72203125 -15.36328125 23.2890625 C-13.48196282 22.64033201 -11.60057014 21.99174219 -9.71533203 21.35449219 C-7.86126669 20.72614091 -6.01257366 20.08200763 -4.1640625 19.4375 C-3.07561035 19.06496094 -1.9871582 18.69242188 -0.86572266 18.30859375 C2.16922216 16.92272697 3.90627062 15.58195044 6 13 C6.12826616 8.12588582 3.01711131 5.48128228 0 2 C0 1.34 0 0.68 0 0 Z " fill="#197DB1" transform="translate(189,65)"/>
<path d="M0 0 C0.99 0.33 1.98 0.66 3 1 C2.25105469 2.00675781 1.50210938 3.01351563 0.73046875 4.05078125 C-1.79217141 7.58779763 -3.80931143 11.275572 -5.6875 15.1875 C-6.37232931 16.58076187 -7.05722873 17.97398928 -7.7421875 19.3671875 C-8.49507771 20.9113189 -9.24766396 22.45559852 -10 24 C-11.76221316 27.60846827 -13.53500792 31.21153778 -15.3125 34.8125 C-15.73297607 35.67834717 -16.15345215 36.54419434 -16.58666992 37.4362793 C-16.98732666 38.24750244 -17.3879834 39.05872559 -17.80078125 39.89453125 C-18.15309814 40.61487549 -18.50541504 41.33521973 -18.8684082 42.07739258 C-20 44 -20 44 -21.56616211 45.56396484 C-23.87754748 47.87889226 -24.32859753 50.71412198 -25.25 53.8125 C-32.41917124 76.4195629 -32.41917124 76.4195629 -43 82 C-43.63035156 82.34933594 -44.26070312 82.69867188 -44.91015625 83.05859375 C-54.75428761 87.93324068 -66.97801768 92.00199839 -78 91 C-77.47142011 85.6646467 -75.63380042 81.92454194 -73 77.375 C-72.60498291 76.67713379 -72.20996582 75.97926758 -71.80297852 75.26025391 C-68.54661129 69.63731457 -64.82938241 64.63232294 -60.65234375 59.6484375 C-58.65688864 56.45004846 -58.49562036 54.70719037 -59 51 C-62.01753597 45.13044692 -68.54320982 40.97443167 -73.609375 37.015625 C-76 35 -76 35 -78 32 C-78.125 29.3125 -78.125 29.3125 -78 27 C-74.60936974 25.30468487 -70.73914341 25.76025966 -67.00390625 25.67578125 C-65.14643816 25.61666921 -63.28901682 25.55607283 -61.43164062 25.49414062 C-58.50919794 25.39966353 -55.58765593 25.31302342 -52.66430664 25.25219727 C-36.86072237 25.03035262 -36.86072237 25.03035262 -23 18 C-22.36860107 17.52989502 -21.73720215 17.05979004 -21.08666992 16.57543945 C-19.43278701 15.27346646 -17.87051146 13.91453371 -16.3125 12.5 C-15.22017016 11.54264802 -14.12642355 10.58691008 -13.03125 9.6328125 C-12.515625 9.18067383 -12 8.72853516 -11.46875 8.26269531 C-7.92075752 5.21245976 -4.1993765 2.09968825 0 0 Z " fill="#55BDE9" transform="translate(133,24)"/>
<path d="M0 0 C1.0098999 0.48903809 2.0197998 0.97807617 3.06030273 1.48193359 C25.64321773 12.85749706 41.50427276 32.63655629 49.8125 56.25 C58.47482183 82.92666094 55.61337074 110.77649366 42.97070312 135.58203125 C39.79434485 141.55477223 36.04171036 146.97016475 31.8125 152.25 C31.33425781 152.88035156 30.85601562 153.51070312 30.36328125 154.16015625 C19.39527858 167.95658368 2.35515165 177.81814704 -14.1875 183.25 C-15.42242187 183.66378906 -16.65734375 184.07757813 -17.9296875 184.50390625 C-36.33226973 190.01287103 -58.03064023 189.33387473 -76.1875 183.25 C-77.14221191 182.93651611 -77.14221191 182.93651611 -78.11621094 182.61669922 C-92.50995829 177.77648443 -104.31264584 169.80051641 -115.1875 159.25 C-115.86039063 158.65058594 -116.53328125 158.05117187 -117.2265625 157.43359375 C-128.40903018 147.11988352 -135.3605638 133.48040098 -140.1875 119.25 C-140.52418701 118.28151123 -140.52418701 118.28151123 -140.86767578 117.29345703 C-148.91703319 93.07125411 -145.42798664 65.19025966 -134.4609375 42.51953125 C-131.06411921 35.90600642 -126.810152 30.05068267 -122.1875 24.25 C-121.55328125 23.43273438 -120.9190625 22.61546875 -120.265625 21.7734375 C-104.22201705 2.37027062 -79.81302491 -8.54974598 -55.1875 -11.375 C-35.17386675 -13.08158888 -17.84277424 -8.73483237 0 0 Z M-114.1875 21.25 C-114.98800781 22.04019531 -115.78851563 22.83039062 -116.61328125 23.64453125 C-136.2386629 44.08340023 -141.73125143 70.06136834 -141.29296875 97.5625 C-141.25995131 99.12504666 -141.22566054 100.68757049 -141.1875 102.25 C-138.0910988 101.54793 -136.1510111 100.69395485 -133.625 98.75 C-131.35849358 97.01352292 -129.96277707 96.17509236 -127.1875 95.25 C-128.58504596 100.76032408 -130.41818435 104.73843371 -134 109.1875 C-136.51804724 112.66785829 -137.74660904 114.69081829 -137.0625 119 C-133.69429868 130.17470957 -127.45982493 140.22794276 -120.1875 149.25 C-119.52234375 150.08015625 -118.8571875 150.9103125 -118.171875 151.765625 C-105.03304467 167.24024739 -87.8173268 177.34860938 -68.1875 182.25 C-67.5574707 182.42442627 -66.92744141 182.59885254 -66.27832031 182.77856445 C-48.83298896 187.23969896 -28.96765205 185.3831557 -12.1875 179.25 C-11.54151855 179.02006348 -10.89553711 178.79012695 -10.22998047 178.55322266 C13.19623432 170.00213986 32.04456577 151.5589197 42.8125 129.25 C46.35528517 121.14300329 48.48989097 113.02556293 49.82543945 104.31494141 C50.09530439 102.61616812 50.44675402 100.93074021 50.8125 99.25 C51.4725 98.92 52.1325 98.59 52.8125 98.25 C53.42560418 81.20106379 53.42560418 81.20106379 51.0625 64.375 C50.90555664 63.67511963 50.74861328 62.97523926 50.58691406 62.25415039 C49.62463491 58.46738555 49.62463491 58.46738555 46.74609375 56.03515625 C45.78896484 55.64650391 45.78896484 55.64650391 44.8125 55.25 C44.15746107 53.21593174 43.50978352 51.17926658 42.89453125 49.1328125 C38.4862454 37.38799315 30.49796058 28.04219435 21.8125 19.25 C20.94044922 18.26966797 20.94044922 18.26966797 20.05078125 17.26953125 C6.55889193 2.41825762 -16.3035752 -6.5006485 -35.98535156 -7.95703125 C-66.23401665 -9.36910631 -92.81825464 -0.36593218 -114.1875 21.25 Z " fill="#2AA7E1" transform="translate(159.1875,11.75)"/>
<path d="M0 0 C5.25049097 0.29254935 8.42909476 2.38933407 12.375 5.625 C12.94009277 6.07649414 13.50518555 6.52798828 14.08740234 6.99316406 C15.73472237 8.31723106 17.36763247 9.65757891 19 11 C19.83015625 11.66257812 20.6603125 12.32515625 21.515625 13.0078125 C26.32989656 16.98404419 29.45893617 20.29980052 30.40576172 26.77490234 C30.71008927 30.11942616 30.93319475 33.45966902 31.125 36.8125 C31.27209751 39.0899307 31.42051042 41.36727685 31.5703125 43.64453125 C31.63766602 44.72943848 31.70501953 45.8143457 31.77441406 46.93212891 C31.97528118 49.66383468 32.26913244 52.35816605 32.6171875 55.07421875 C32.94160078 58.40111006 32.90954888 59.9539013 32 63 C25.92141205 63.77930615 21.84184989 61.37487961 17 58 C15.12616705 56.33178433 13.4061368 54.59588154 11.6953125 52.76171875 C9.97690649 50.9760019 8.17093069 49.43826786 6.25 47.875 C3.41571307 45.5047335 1.90418284 43.17363807 0 40 C-1.73461663 38.39190835 -3.52826488 36.90224085 -5.37890625 35.4296875 C-8.04143095 33.08153318 -8.95969822 31.41231825 -9.3046875 27.8828125 C-8.93707347 23.19809017 -7.69480178 19.27774638 -6.125 14.875 C-5.72087891 13.69744141 -5.72087891 13.69744141 -5.30859375 12.49609375 C-1.51107442 1.51107442 -1.51107442 1.51107442 0 0 Z " fill="#80CFF2" transform="translate(111,74)"/>
<path d="M0 0 C0.66 0 1.32 0 2 0 C1.44799362 6.03148144 -0.37882408 11.01377399 -2.75 16.5625 C-3.08515625 17.38685547 -3.4203125 18.21121094 -3.765625 19.06054688 C-8.05422308 29.22160028 -13.86523788 33.82589396 -23.94091797 38.17285156 C-32.91445801 41.77758878 -42.24470019 44.88684544 -52 44 C-48.1647454 33.76024257 -41.73327447 24.5414083 -35 16 C-34.47019531 15.31808594 -33.94039062 14.63617188 -33.39453125 13.93359375 C-27.3002049 6.96649967 -17.96073322 4.18135894 -9 3 C-8.01 3 -7.02 3 -6 3 C-3.99690671 2.68578929 -1.99628664 2.3548954 0 2 C0 1.34 0 0.68 0 0 Z " fill="#76CBF0" transform="translate(107,71)"/>
<path d="M0 0 C1.0098999 0.48903809 2.0197998 0.97807617 3.06030273 1.48193359 C25.64321773 12.85749706 41.50427276 32.63655629 49.8125 56.25 C55.48040914 73.70500726 55.59951226 91.26110266 52.8125 109.25 C52.4825 109.25 52.1525 109.25 51.8125 109.25 C51.4825 105.62 51.1525 101.99 50.8125 98.25 C51.4725 98.25 52.1325 98.25 52.8125 98.25 C52.6129983 81.25115527 52.6129983 81.25115527 50 64.5 C49.77038574 63.47531616 49.77038574 63.47531616 49.53613281 62.42993164 C48.44700517 58.20228321 46.89598159 56.21842631 43.8125 53.25 C42.50425106 50.76236604 41.29552729 48.29917505 40.125 45.75 C29.11821046 22.94062487 10.48625392 6.78358769 -13.09130859 -2.01855469 C-37.37995969 -10.49383988 -63.95236822 -8.49367819 -87.1875 2.25 C-97.57103817 7.39803268 -106.07029203 14.03673039 -114.1875 22.25 C-115.27804688 23.32507812 -115.27804688 23.32507812 -116.390625 24.421875 C-133.71995758 42.5699162 -139.97545917 66.84200544 -141.1875 91.25 C-142.1775 90.92 -143.1675 90.59 -144.1875 90.25 C-145.40798943 65.36557668 -137.66830552 43.67591403 -122.1875 24.25 C-121.55328125 23.43273438 -120.9190625 22.61546875 -120.265625 21.7734375 C-104.22201705 2.37027062 -79.81302491 -8.54974598 -55.1875 -11.375 C-35.17386675 -13.08158888 -17.84277424 -8.73483237 0 0 Z " fill="#CDEBF7" transform="translate(159.1875,11.75)"/>
<path d="M0 0 C3.63 0 7.26 0 11 0 C11.66 6.93 12.32 13.86 13 21 C14.23036156 15.96057572 14.23036156 15.96057572 15.45263672 10.91918945 C16.38538539 7.1438009 17.43459749 3.57504087 19 0 C21.58445773 -0.1081866 24.16437352 -0.18737237 26.75 -0.25 C27.47960937 -0.28351563 28.20921875 -0.31703125 28.9609375 -0.3515625 C32.53051028 -0.41646382 34.57166072 -0.31353361 37.4921875 1.82421875 C39.50783155 4.73280356 39.44283062 6.53116011 39 10 C38.34 10.99 37.68 11.98 37 13 C36.34 13 35.68 13 35 13 C35.495 13.99 35.495 13.99 36 15 C36.26470588 23.20588235 36.26470588 23.20588235 35 27 C32.36 27 29.72 27 27 27 C27.33 23.7 27.66 20.4 28 17 C26.35 17 24.7 17 23 17 C22.34 20.3 21.68 23.6 21 27 C15.72 27 10.44 27 5 27 C4.505 24.525 4.505 24.525 4 22 C1.05908413 22.18415432 1.05908413 22.18415432 -2 23 C-2.66 24.32 -3.32 25.64 -4 27 C-6.97 27 -9.94 27 -13 27 C-11.5893584 23.80980062 -10.17039391 20.62336785 -8.75 17.4375 C-8.35425781 16.54224609 -7.95851563 15.64699219 -7.55078125 14.72460938 C-5.27788347 9.63853484 -2.85981219 4.78165845 0 0 Z M25 6 C24.67 7.65 24.34 9.3 24 11 C25.65 11 27.3 11 29 11 C29.66 9.68 30.32 8.36 31 7 C29.93354885 5.70366379 29.93354885 5.70366379 27.4375 5.9375 C26.633125 5.958125 25.82875 5.97875 25 6 Z M3 9 C2.34 10.98 1.68 12.96 1 15 C1.99 15 2.98 15 4 15 C4 13.02 4 11.04 4 9 C3.67 9 3.34 9 3 9 Z " fill="#242021" transform="translate(68,219)"/>
<path d="M0 0 C0.99 0.66 1.98 1.32 3 2 C4.22520911 8.31189185 4.04399571 14.51036684 3.78515625 20.90820312 C3.69312819 25.54725383 3.92358685 28.45910878 7 32 C13.11662803 36.60930313 20.29313329 39.82044442 27.109375 43.25 C38.66848404 49.19680851 38.66848404 49.19680851 41.1875 54.5 C40.96500045 57.46666066 40.05074343 58.67951777 37.92358398 60.70703125 C33.48288094 63.69192316 28.03215216 64.80312992 22.9375 66.25 C21.75349609 66.600625 20.56949219 66.95125 19.34960938 67.3125 C16.23834719 68.22913248 13.12470225 69.13035429 10 70 C9.2582251 70.23154785 8.5164502 70.4630957 7.75219727 70.70166016 C7.17397217 70.8001123 6.59574707 70.89856445 6 71 C4.0625 69.4453125 4.0625 69.4453125 2 67.125 C-3.1745355 61.62219681 -8.8745151 57.38423031 -15 53 C-14.01 52.505 -14.01 52.505 -13 52 C-10.65645051 53.20296267 -8.4354426 54.44990095 -6.1875 55.8125 C1.18996892 60.22973061 6.48673521 62.36777805 15.1875 62.3125 C16.03304443 62.31048584 16.87858887 62.30847168 17.74975586 62.30639648 C24.7003063 62.19479741 30.74619945 61.12690027 37 58 C36.76787311 54.59547228 36.59302963 52.60180596 34.15234375 50.125 C29.6067774 47.0608264 24.76302769 44.94120905 19.75 42.75 C18.75097656 42.29109375 17.75195312 41.8321875 16.72265625 41.359375 C7.38444303 37.25788527 1.10879413 36.80272469 -8.3984375 40.48828125 C-9.21570313 40.82214844 -10.03296875 41.15601563 -10.875 41.5 C-12.53742729 42.16038139 -14.20142941 42.81681592 -15.8671875 43.46875 C-16.59019043 43.76201172 -17.31319336 44.05527344 -18.05810547 44.35742188 C-20 45 -20 45 -23 45 C-22.39518653 41.35729953 -21.38984073 38.34179523 -19.8125 35.0078125 C-19.36511475 34.06188232 -18.91772949 33.11595215 -18.45678711 32.14135742 C-17.97604736 31.14595947 -17.49530762 30.15056152 -17 29.125 C-16.50959229 28.10446533 -16.01918457 27.08393066 -15.51391602 26.0324707 C-5.51741006 5.51741006 -5.51741006 5.51741006 0 0 Z " fill="#527C98" transform="translate(136,24)"/>
<path d="M0 0 C2.64 0 5.28 0 8 0 C8 3.3 8 6.6 8 10 C9.32 6.7 10.64 3.4 12 0 C14.97 0 17.94 0 21 0 C21 3.63 21 7.26 21 11 C22.32 7.37 23.64 3.74 25 0 C27.97 0 30.94 0 34 0 C33.60675537 0.91495239 33.60675537 0.91495239 33.20556641 1.84838867 C32.01140244 4.62781719 30.81819249 7.4076543 29.625 10.1875 C29.2125 11.14720703 28.8 12.10691406 28.375 13.09570312 C27.77558594 14.49272461 27.77558594 14.49272461 27.1640625 15.91796875 C26.79748535 16.77156982 26.4309082 17.6251709 26.05322266 18.50463867 C25.00372847 20.99116627 23.9942031 23.49091431 23 26 C20.03 26 17.06 26 14 26 C13.67 22.7 13.34 19.4 13 16 C11.35 19.3 9.7 22.6 8 26 C5.36 26 2.72 26 0 26 C0 17.42 0 8.84 0 0 Z " fill="#231F20" transform="translate(131,220)"/>
<path d="M0 0 C1.00611328 0.43505859 2.01222656 0.87011719 3.04882812 1.31835938 C8.48590927 3.73762752 13.08608357 6.08608357 17.3125 10.3125 C17.8075 11.7975 17.8075 11.7975 18.3125 13.3125 C17.3125 14.3125 17.3125 14.3125 15.22265625 14.33203125 C8.31325918 13.82970197 1.7050112 12.61803051 -5.02661133 11.04516602 C-12.25444174 9.36726339 -19.52380515 7.94978324 -26.8125 6.5625 C-28.56651123 6.22847168 -28.56651123 6.22847168 -30.35595703 5.88769531 C-33.13275222 5.36055523 -35.90989589 4.83535832 -38.6875 4.3125 C-38.3575 3.3225 -38.0275 2.3325 -37.6875 1.3125 C-35.01343861 0.08589372 -32.4583959 -0.92558135 -29.6875 -1.875 C-28.95660156 -2.14763672 -28.22570312 -2.42027344 -27.47265625 -2.70117188 C-17.00351881 -6.37180969 -9.93241957 -4.53814375 0 0 Z " fill="#79CBEF" transform="translate(155.6875,65.6875)"/>
<path d="M0 0 C1.98 0.66 3.96 1.32 6 2 C6 2.66 6 3.32 6 4 C75.96 4 145.92 4 218 4 C218 4.66 218 5.32 218 6 C148.04 6 78.08 6 6 6 C6 6.66 6 7.32 6 8 C4.02 8.66 2.04 9.32 0 10 C-0.103125 9.360625 -0.20625 8.72125 -0.3125 8.0625 C-0.539375 7.381875 -0.76625 6.70125 -1 6 C-1.99 5.67 -2.98 5.34 -4 5 C-2.68 3.35 -1.36 1.7 0 0 Z " fill="#83CAE9" transform="translate(4,242)"/>
<path d="M0 0 C4.0384057 -0.0744389 8.07654293 -0.12873729 12.11547852 -0.16479492 C13.48794517 -0.17983432 14.86036414 -0.20027133 16.23266602 -0.22631836 C18.21088656 -0.26291221 20.18946514 -0.27816698 22.16796875 -0.29296875 C23.35672607 -0.3086792 24.5454834 -0.32438965 25.77026367 -0.34057617 C29.33554512 0.03538328 31.20058916 0.78434951 34 3 C34.8125 6.1875 34.8125 6.1875 35 9 C32.36 9 29.72 9 27 9 C26.67 8.34 26.34 7.68 26 7 C25.01 7.33 24.02 7.66 23 8 C23.62648438 8.39832031 24.25296875 8.79664063 24.8984375 9.20703125 C25.71570313 9.73683594 26.53296875 10.26664063 27.375 10.8125 C28.18710937 11.33457031 28.99921875 11.85664063 29.8359375 12.39453125 C32 14 32 14 34 17 C34.1171875 18.9375 34.1171875 18.9375 33.875 21 C33.81054688 21.680625 33.74609375 22.36125 33.6796875 23.0625 C32.70226689 25.84871049 31.59890337 26.61335107 29 28 C25.65234375 28.3984375 25.65234375 28.3984375 21.9375 28.375 C20.70902344 28.38273437 19.48054688 28.39046875 18.21484375 28.3984375 C15 28 15 28 13.109375 26.67578125 C11.50135706 24.24676823 11.3173949 21.85655406 11 19 C12.27875 18.938125 13.5575 18.87625 14.875 18.8125 C15.95394531 18.76029297 15.95394531 18.76029297 17.0546875 18.70703125 C17.69664063 18.80371094 18.33859375 18.90039062 19 19 C19.66 19.99 20.32 20.98 21 22 C21.99 22 22.98 22 24 22 C24 21.01 24 20.02 24 19 C22.29849615 17.59964954 22.29849615 17.59964954 20.125 16.4375 C17.72834251 15.05877768 15.96772446 13.96772446 14 12 C13.65509678 7.94738713 13.69836118 6.45245824 16 3 C10.72 2.67 5.44 2.34 0 2 C0 1.34 0 0.68 0 0 Z " fill="#353233" transform="translate(5,218)"/>
<path d="M0 0 C3.96 0 7.92 0 12 0 C12.33704878 3.20798217 12.6697599 6.41631581 13 9.625 C13.09539062 10.52863281 13.19078125 11.43226563 13.2890625 12.36328125 C13.75579891 16.93063039 14.12222799 21.40117188 14 26 C11.36 26 8.72 26 6 26 C5.505 23.525 5.505 23.525 5 21 C2.05908413 21.18415432 2.05908413 21.18415432 -1 22 C-1.66 23.32 -2.32 24.64 -3 26 C-5.97 26 -8.94 26 -12 26 C-10.56460211 22.79072218 -9.12630395 19.58275207 -7.6875 16.375 C-7.28337891 15.47136719 -6.87925781 14.56773437 -6.46289062 13.63671875 C-4.39943356 9.04007457 -2.3009615 4.48277937 0 0 Z M4 8 C3.34 9.98 2.68 11.96 2 14 C2.99 14 3.98 14 5 14 C5 12.02 5 10.04 5 8 C4.67 8 4.34 8 4 8 Z " fill="#231F20" transform="translate(169,220)"/>
<path d="M0 0 C1.09924805 -0.01063477 1.09924805 -0.01063477 2.22070312 -0.02148438 C4.34765625 0.00390625 4.34765625 0.00390625 7.9375 0.4375 C9.9375 3.4375 9.9375 3.4375 9.9375 7.4375 C7.2975 7.4375 4.6575 7.4375 1.9375 7.4375 C1.6075 6.7775 1.2775 6.1175 0.9375 5.4375 C-0.0525 5.7675 -1.0425 6.0975 -2.0625 6.4375 C-1.43601562 6.83582031 -0.80953125 7.23414063 -0.1640625 7.64453125 C0.65320313 8.17433594 1.47046875 8.70414063 2.3125 9.25 C3.12460938 9.77207031 3.93671875 10.29414063 4.7734375 10.83203125 C6.9375 12.4375 6.9375 12.4375 8.9375 15.4375 C9.0546875 17.375 9.0546875 17.375 8.8125 19.4375 C8.74804688 20.118125 8.68359375 20.79875 8.6171875 21.5 C7.63976689 24.28621049 6.53640337 25.05085107 3.9375 26.4375 C0.58984375 26.8359375 0.58984375 26.8359375 -3.125 26.8125 C-4.35347656 26.82023437 -5.58195312 26.82796875 -6.84765625 26.8359375 C-10.0625 26.4375 -10.0625 26.4375 -11.953125 25.11328125 C-13.56114294 22.68426823 -13.7451051 20.29405406 -14.0625 17.4375 C-12.78375 17.375625 -11.505 17.31375 -10.1875 17.25 C-9.10855469 17.19779297 -9.10855469 17.19779297 -8.0078125 17.14453125 C-7.36585937 17.24121094 -6.72390625 17.33789062 -6.0625 17.4375 C-5.4025 18.4275 -4.7425 19.4175 -4.0625 20.4375 C-3.0725 20.4375 -2.0825 20.4375 -1.0625 20.4375 C-1.0625 19.4475 -1.0625 18.4575 -1.0625 17.4375 C-2.76400385 16.03714954 -2.76400385 16.03714954 -4.9375 14.875 C-7.33415749 13.49627768 -9.09477554 12.40522446 -11.0625 10.4375 C-11.40475428 7.28876059 -11.39942254 5.15670005 -10.046875 2.26953125 C-7.03709218 -0.50918556 -3.87845153 -0.10630592 0 0 Z " fill="#231F20" transform="translate(119.0625,219.5625)"/>
<path d="M0 0 C2.55903783 2.55903783 2.35568242 3.62121594 2.4375 7.1875 C2.08666609 24.48154786 -7.96637444 41.28001246 -19 54 C-19.763125 55.010625 -20.52625 56.02125 -21.3125 57.0625 C-32.91118747 69.74013514 -47.91166557 78.447389 -64 84 C-64.9796875 84.3403125 -65.959375 84.680625 -66.96875 85.03125 C-73.691741 87.11769548 -79.99481405 87.3300873 -87 87 C-86.505 86.01 -86.505 86.01 -86 85 C-84.19677734 84.40917969 -84.19677734 84.40917969 -81.8359375 83.921875 C-80.53474976 83.64005371 -80.53474976 83.64005371 -79.20727539 83.35253906 C-78.27262451 83.15370117 -77.33797363 82.95486328 -76.375 82.75 C-50.17308654 76.7890813 -28.64029773 63.63380824 -13.91015625 40.75390625 C-6.12006488 27.98796388 -2.34154476 14.65845092 0 0 Z " fill="#36A6E7" transform="translate(209,111)"/>
<path d="M0 0 C2.93902349 -0.13481759 5.87189559 -0.23399416 8.8125 -0.3125 C10.06256836 -0.3753418 10.06256836 -0.3753418 11.33789062 -0.43945312 C13.65629005 -0.48600733 15.72792631 -0.46811713 18 0 C20.75033959 3.04557378 21 4.44684052 21 8.5625 C20 12 20 12 18.0625 14.375 C13.80566363 16.6337295 9.76060208 16.81512225 5 17 C4.34 19.97 3.68 22.94 3 26 C0.36 26 -2.28 26 -5 26 C-3.63948216 17.26067362 -1.91580102 8.63387662 0 0 Z M7 5 C7 6.65 7 8.3 7 10 C8.65 10 10.3 10 12 10 C12 8.35 12 6.7 12 5 C10.35 5 8.7 5 7 5 Z " fill="#231F20" transform="translate(189,220)"/>
<path d="M0 0 C0.99708984 0.53044922 1.99417969 1.06089844 3.02148438 1.60742188 C15.89283966 8.58689929 15.89283966 8.58689929 18.375 13.8125 C18.15250045 16.77916066 17.23824343 17.99201777 15.11108398 20.01953125 C10.67038094 23.00442316 5.21965216 24.11562992 0.125 25.5625 C-1.05900391 25.913125 -2.24300781 26.26375 -3.46289062 26.625 C-6.57415281 27.54163248 -9.68779775 28.44285429 -12.8125 29.3125 C-13.5542749 29.54404785 -14.2960498 29.7755957 -15.06030273 30.01416016 C-15.63852783 30.1126123 -16.21675293 30.21106445 -16.8125 30.3125 C-18.75 28.7578125 -18.75 28.7578125 -20.8125 26.4375 C-25.9870355 20.93469681 -31.6870151 16.69673031 -37.8125 12.3125 C-37.1525 11.9825 -36.4925 11.6525 -35.8125 11.3125 C-33.46895051 12.51546267 -31.2479426 13.76240095 -29 15.125 C-21.62253108 19.54223061 -16.32576479 21.68027805 -7.625 21.625 C-6.77945557 21.62298584 -5.93391113 21.62097168 -5.06274414 21.61889648 C1.8878063 21.50729741 7.93369945 20.43940027 14.1875 17.3125 C13.95537311 13.90797228 13.78052963 11.91430596 11.33984375 9.4375 C6.7942774 6.3733264 1.95052769 4.25370905 -3.0625 2.0625 C-4.06152344 1.60359375 -5.06054688 1.1446875 -6.08984375 0.671875 C-13.27542467 -2.48414485 -19.12777439 -4.12752779 -26.7734375 -1.77734375 C-27.57007813 -1.39707031 -28.36671875 -1.01679687 -29.1875 -0.625 C-33.51072485 1.41309172 -33.51072485 1.41309172 -36.8125 0.3125 C-35.42172699 -0.50863177 -34.02461107 -1.31902495 -32.625 -2.125 C-31.84769531 -2.57746094 -31.07039063 -3.02992187 -30.26953125 -3.49609375 C-19.63688265 -8.65182956 -9.66719327 -5.43580479 0 0 Z " fill="#596274" transform="translate(158.8125,64.6875)"/>
<path d="M0 0 C0.53625 0.495 1.0725 0.99 1.625 1.5 C-0.685 1.5 -2.995 1.5 -5.375 1.5 C-4.88 3.48 -4.88 3.48 -4.375 5.5 C-6.025 5.5 -7.675 5.5 -9.375 5.5 C-11.37220496 10.65068648 -13.246151 15.84540959 -15.0625 21.0625 C-15.49949219 22.30128906 -15.93648437 23.54007813 -16.38671875 24.81640625 C-17.39902527 28.58954875 -17.66954958 31.6138459 -17.375 35.5 C-14.62763924 40.00567165 -10.42660937 43.18815077 -6.375 46.5 C-6.87 47.49 -6.87 47.49 -7.375 48.5 C-7.89449219 48.09007812 -8.41398437 47.68015625 -8.94921875 47.2578125 C-15.38503945 42.28521906 -20.01930672 39.68428578 -28.375 40.5 C-33.66136792 41.72911243 -38.82035086 43.39930393 -44 45.01171875 C-50.39654608 46.91823188 -56.66319673 48.60201353 -63.375 47.5 C-64.035 46.84 -64.695 46.18 -65.375 45.5 C-64.72917969 45.42523438 -64.08335938 45.35046875 -63.41796875 45.2734375 C-50.38426342 43.45478094 -31.5405054 40.02025927 -22.66015625 29.4609375 C-17.58109071 21.73248662 -12.87461268 10.6715442 -11.375 1.5 C-11.87 0.51 -11.87 0.51 -12.375 -0.5 C-8.00924572 -1.84330901 -3.98450792 -2.51653132 0 0 Z " fill="#7299B2" transform="translate(120.375,69.5)"/>
<path d="M0 0 C0.87454834 0.00523682 1.74909668 0.01047363 2.65014648 0.01586914 C3.59438477 0.0190918 4.53862305 0.02231445 5.51147461 0.02563477 C6.50469727 0.03401367 7.49791992 0.04239258 8.52124023 0.05102539 C9.51833008 0.05553711 10.51541992 0.06004883 11.54272461 0.06469727 C14.01478872 0.07652532 16.48673541 0.0930069 18.95874023 0.11352539 C19.00146124 1.77964444 18.99937856 3.44735424 18.95874023 5.11352539 C17.95874023 6.11352539 17.95874023 6.11352539 14.39624023 6.17602539 C13.26186523 6.15540039 12.12749023 6.13477539 10.95874023 6.11352539 C10.92135742 6.7077832 10.88397461 7.30204102 10.84545898 7.91430664 C10.31637843 14.58487126 8.89251607 20.71625438 6.95874023 27.11352539 C4.31874023 27.11352539 1.67874023 27.11352539 -1.04125977 27.11352539 C-0.3396957 19.95757193 1.26659044 13.09497358 2.95874023 6.11352539 C0.97874023 6.11352539 -1.00125977 6.11352539 -3.04125977 6.11352539 C-3.08398077 4.44740634 -3.08189809 2.77969654 -3.04125977 1.11352539 C-2.04125977 0.11352539 -2.04125977 0.11352539 0 0 Z " fill="#252122" transform="translate(44.041259765625,218.886474609375)"/>
<path d="M0 0 C0.7425 0.99966797 0.7425 0.99966797 1.5 2.01953125 C4.73689118 5.87851245 8.32251376 9.25318087 12 12.6875 C12.7115625 13.36361328 13.423125 14.03972656 14.15625 14.73632812 C14.8471875 15.38408203 15.538125 16.03183594 16.25 16.69921875 C16.87390625 17.28533936 17.4978125 17.87145996 18.140625 18.4753418 C23.3963266 22.7849343 28.45995325 22.46144156 35 22 C37.33861894 21.57143792 39.61533697 21.03445432 41.91796875 20.4453125 C44.99905527 19.78631839 47.86047761 19.8664033 51 20 C48.31158141 22.25245881 46.35358125 23.88213958 43 25 C43 24.34 43 23.68 43 23 C20.83799722 29.87525768 12.42330053 42.40586646 1 62 C0.67 61.34 0.34 60.68 0 60 C0.99617427 57.67866797 2.04996194 55.52716132 3.25 53.3125 C3.77787109 52.32068726 3.77787109 52.32068726 4.31640625 51.30883789 C7.51260615 45.49787737 11.31289496 40.24277979 15.49316406 35.10083008 C17.69912548 32.28959338 18.95113984 30.3449444 19.45703125 26.7734375 C18.20851962 19.1969994 10.05523052 14.44206538 4.390625 10.015625 C2 8 2 8 0 5 C-0.125 2.3125 -0.125 2.3125 0 0 Z " fill="#5790B1" transform="translate(55,51)"/>
<path d="M0 0 C2.55903783 2.55903783 2.35568242 3.62121594 2.4375 7.1875 C2.12131551 22.77353546 -6.57187668 38.92021699 -16 51 C-17.25 49.421875 -17.25 49.421875 -18 47 C-16.77391478 44.56009042 -15.52567748 42.49020214 -14 40.25 C-5.97182935 27.64821423 -2.22604557 14.68409007 0 0 Z " fill="#53B4F0" transform="translate(209,111)"/>
<path d="M0 0 C0.33 0 0.66 0 1 0 C1.14695313 1.21236328 1.14695313 1.21236328 1.296875 2.44921875 C1.44640625 3.51785156 1.5959375 4.58648437 1.75 5.6875 C1.88921875 6.74324219 2.0284375 7.79898438 2.171875 8.88671875 C3.11095436 12.4171256 4.5582331 14.32497488 7 17 C5.62328125 17.14695312 5.62328125 17.14695312 4.21875 17.296875 C-2.99788616 18.17621302 -8.8053385 19.11315357 -15 23 C-15.33 23.66 -15.66 24.32 -16 25 C-18.06640625 25.6328125 -18.06640625 25.6328125 -20.5625 26.125 C-21.38878906 26.29257813 -22.21507813 26.46015625 -23.06640625 26.6328125 C-23.70449219 26.75398438 -24.34257813 26.87515625 -25 27 C-25 26.34 -25 25.68 -25 25 C-24.47567383 24.71801758 -23.95134766 24.43603516 -23.41113281 24.14550781 C-21.02007953 22.85427559 -18.63505781 21.55227083 -16.25 20.25 C-15.425 19.8065625 -14.6 19.363125 -13.75 18.90625 C-6.35897347 15.01535511 -6.35897347 15.01535511 -1.953125 8.203125 C-1.72109375 7.22859375 -1.4890625 6.2540625 -1.25 5.25 C-1.00765625 4.26515625 -0.7653125 3.2803125 -0.515625 2.265625 C-0.34546875 1.51796875 -0.1753125 0.7703125 0 0 Z " fill="#4A5E71" transform="translate(138,42)"/>
<path d="M0 0 C4.1351361 1.40818148 6.97870147 3.38440746 10.3125 6.1875 C11.19550781 6.92355469 12.07851562 7.65960938 12.98828125 8.41796875 C13.98214844 9.27003906 14.97601563 10.12210938 16 11 C16.6997998 11.39469482 17.39959961 11.78938965 18.12060547 12.19604492 C21.28318535 14.23563915 23.57364503 16.05207472 24.41104126 19.87796021 C25.01048101 25.55703711 24.72657806 31.2436574 24.5 36.9375 C24.4598352 38.68806993 24.42333966 40.43872812 24.390625 42.18945312 C24.30282713 46.46182662 24.16500196 50.72993957 24 55 C23.67 55 23.34 55 23 55 C22.67855012 52.70927953 22.3659759 50.41813642 22.0625 48.125 C21.9682373 47.41480713 21.87397461 46.70461426 21.77685547 45.97290039 C21.28411042 42.0373671 20.92717948 38.14039572 20.78515625 34.17578125 C20.75607178 33.38478027 20.7269873 32.5937793 20.69702148 31.77880859 C20.65014149 30.25481159 20.61888815 28.73022736 20.60571289 27.20556641 C20.39679181 20.47570553 18.37750089 16.24640174 13.37890625 11.5234375 C11.98478516 10.45996094 11.98478516 10.45996094 10.5625 9.375 C6.76912262 6.45214733 3.33075806 3.44561178 0 0 Z " fill="#6995B0" transform="translate(120,77)"/>
<path d="M0 0 C-0.32890317 7.72922444 -4.21364205 12.99366642 -9.375 18.5625 C-9.91125 19.036875 -10.4475 19.51125 -11 20 C-13.53657286 10.64638759 -13.53657286 10.64638759 -13 7 C-10.91796875 4.98046875 -10.91796875 4.98046875 -8.1875 3.1875 C-7.29417969 2.58292969 -6.40085937 1.97835937 -5.48046875 1.35546875 C-3 0 -3 0 0 0 Z " fill="#01AFF4" transform="translate(32,107)"/>
<path d="M0 0 C0.99708984 0.53044922 1.99417969 1.06089844 3.02148438 1.60742188 C8.21663624 4.42448692 12.8254656 7.32075714 17.1875 11.3125 C16.6925 12.7975 16.6925 12.7975 16.1875 14.3125 C15.52105469 13.57128906 14.85460937 12.83007812 14.16796875 12.06640625 C11.01785812 8.92293909 7.48937355 7.14265495 3.5 5.25 C2.79029053 4.90710938 2.08058105 4.56421875 1.34936523 4.2109375 C-0.69832636 3.23076616 -2.75377562 2.26923207 -4.8125 1.3125 C-5.78703125 0.84972656 -6.7615625 0.38695313 -7.765625 -0.08984375 C-14.15015928 -2.91068358 -19.76210991 -4.11045045 -26.4921875 -1.74609375 C-28.22751121 -1.02429968 -29.94842611 -0.26627769 -31.6484375 0.53515625 C-33.8125 1.3125 -33.8125 1.3125 -36.8125 0.3125 C-35.42172699 -0.50863177 -34.02461107 -1.31902495 -32.625 -2.125 C-31.84769531 -2.57746094 -31.07039063 -3.02992187 -30.26953125 -3.49609375 C-19.63688265 -8.65182956 -9.66719327 -5.43580479 0 0 Z " fill="#7CA0B8" transform="translate(158.8125,64.6875)"/>
<path d="M0 0 C0.671875 1.76953125 0.671875 1.76953125 1 4 C-3.01721976 11.00015532 -10.72490264 16.17300203 -17 21 C-17.63808594 21.49242187 -18.27617187 21.98484375 -18.93359375 22.4921875 C-20.5 23.625 -20.5 23.625 -23 25 C-23.99 24.67 -24.98 24.34 -26 24 C-22.91922571 20.71384075 -19.67302264 17.90500554 -16.125 15.125 C-11.75760488 11.68047706 -7.83562758 8.01876099 -4 4 C-2.66666667 2.66666667 -1.33333333 1.33333333 0 0 Z " fill="#4AACEB" transform="translate(191,159)"/>
<path d="M0 0 C0.66 0 1.32 0 2 0 C2.495 1.485 2.495 1.485 3 3 C3.66 3.66 4.32 4.32 5 5 C4.01 5.33 3.02 5.66 2 6 C2 7.32 2 8.64 2 10 C-0.31 9.34 -2.62 8.68 -5 8 C-5 7.67 -5 7.34 -5 7 C-13.91 6.34 -22.82 5.68 -32 5 C-32 4.67 -32 4.34 -32 4 C-30.80455566 3.970271 -30.80455566 3.970271 -29.58496094 3.93994141 C-25.97297528 3.84466752 -22.36156601 3.73499693 -18.75 3.625 C-16.86861328 3.57859375 -16.86861328 3.57859375 -14.94921875 3.53125 C-13.74394531 3.49257812 -12.53867188 3.45390625 -11.296875 3.4140625 C-10.18666992 3.3826416 -9.07646484 3.3512207 -7.93261719 3.31884766 C-4.72907057 2.9705433 -2.31316276 2.31316276 0 0 Z " fill="#31ACE1" transform="translate(222,214)"/>
<path d="M0 0 C0.53625 0.495 1.0725 0.99 1.625 1.5 C-0.685 1.5 -2.995 1.5 -5.375 1.5 C-5.045 2.82 -4.715 4.14 -4.375 5.5 C-6.025 5.5 -7.675 5.5 -9.375 5.5 C-12.31277407 13.07636471 -14.83320144 20.78418462 -17.375 28.5 C-18.365 28.17 -19.355 27.84 -20.375 27.5 C-18.29520767 21.04169749 -15.94960105 14.73012448 -13.4609375 8.41796875 C-12.18883709 5.01835969 -12.18883709 5.01835969 -11.375 1.5 C-11.705 0.84 -12.035 0.18 -12.375 -0.5 C-8.00924572 -1.84330901 -3.98450792 -2.51653132 0 0 Z " fill="#3F97C0" transform="translate(120.375,69.5)"/>
<path d="M0 0 C-0.87140625 0.59425781 -1.7428125 1.18851562 -2.640625 1.80078125 C-14.98381875 10.34123865 -25.50000083 20.29093005 -36 31 C-36 27.47049413 -35.54599546 27.14054753 -33.21875 24.671875 C-32.62811768 24.04023437 -32.03748535 23.40859375 -31.42895508 22.7578125 C-30.7923999 22.09523438 -30.15584473 21.43265625 -29.5 20.75 C-28.53259888 19.73292969 -28.53259888 19.73292969 -27.5456543 18.6953125 C-7.28963467 -2.42987822 -7.28963467 -2.42987822 0 0 Z " fill="#94D7ED" transform="translate(106,74)"/>
<path d="M0 0 C5.28 0.33 10.56 0.66 16 1 C15 3 15 3 12.875 3.8125 C9.68932199 5.12832353 7.34660188 6.86442477 4.6484375 8.9765625 C3 10 3 10 0 10 C0 6.7 0 3.4 0 0 Z " fill="#1990C4" transform="translate(18,104)"/>
<path d="M0 0 C2.97 0.495 2.97 0.495 6 1 C5.01 1.33 4.02 1.66 3 2 C3.13277344 2.96679688 3.26554687 3.93359375 3.40234375 4.9296875 C3.86036249 8.30632199 4.30922897 11.6837634 4.74755859 15.06298828 C4.96873314 16.76008585 5.19669914 18.45629548 5.42578125 20.15234375 C5.53277344 21.03019531 5.63976562 21.90804687 5.75 22.8125 C5.84796875 23.58207031 5.9459375 24.35164063 6.046875 25.14453125 C6 27 6 27 4 29 C1.40389041 19.21822996 -0.70861513 10.21586809 0 0 Z " fill="#47B6E4" transform="translate(15,102)"/>
<path d="M0 0 C2.5962519 2.5962519 2.32751805 3.75687507 2.375 7.375 C2.29356605 14.10144436 0.46502993 19.79340679 -2 26 C-4.63045457 22.05431815 -3.86416904 20.59177388 -3 16 C-2.81606689 14.97737061 -2.81606689 14.97737061 -2.62841797 13.93408203 C-2.24449622 11.80755762 -1.84334646 9.68494104 -1.4375 7.5625 C-1.29892578 6.83095703 -1.16035156 6.09941406 -1.01757812 5.34570312 C-0.6797819 3.56353682 -0.34009012 1.78172998 0 0 Z " fill="#57BCF2" transform="translate(209,111)"/>
<path d="M0 0 C0.66 0.66 1.32 1.32 2 2 C-14.51397977 7.33016062 -14.51397977 7.33016062 -22 6 C-22.66 5.34 -23.32 4.68 -24 4 C-23.23816406 3.89042969 -22.47632813 3.78085938 -21.69140625 3.66796875 C-15.81538805 2.76565884 -10.3809354 1.66550721 -4.83984375 -0.51171875 C-3 -1 -3 -1 0 0 Z " fill="#80A2B8" transform="translate(79,111)"/>
<path d="M0 0 C0.66 0.99 1.32 1.98 2 3 C1.62705811 3.4110498 1.25411621 3.82209961 0.86987305 4.24560547 C-2.99519669 8.61311595 -6.16927383 13.1432788 -9.1875 18.125 C-9.61224609 18.81464844 -10.03699219 19.50429687 -10.47460938 20.21484375 C-12.67516856 23.79460254 -14.84529645 27.39245074 -17 31 C-17.33 30.34 -17.66 29.68 -18 29 C-16.98060445 26.66120662 -15.90515624 24.4841418 -14.6875 22.25 C-14.33300781 21.59056396 -13.97851562 20.93112793 -13.61328125 20.25170898 C-9.65814771 13.08558663 -4.91197469 6.53252372 0 0 Z " fill="#82A5BE" transform="translate(73,82)"/>
<path d="M0 0 C0.52078125 0.69480469 1.0415625 1.38960937 1.578125 2.10546875 C4.40186019 5.48028775 7.49195414 8.36593765 10.75 11.3125 C11.35199219 11.86228516 11.95398438 12.41207031 12.57421875 12.97851562 C14.04650867 14.32227229 15.52284406 15.66159426 17 17 C16.34 17.66 15.68 18.32 15 19 C12.66749978 17.16710628 10.36130903 15.31184478 8.0625 13.4375 C7.40314453 12.92380859 6.74378906 12.41011719 6.06445312 11.88085938 C2.82020294 9.20227332 0.67124858 7.38624008 0.05859375 3.09765625 C0.03925781 2.07542969 0.01992188 1.05320313 0 0 Z " fill="#84A4BC" transform="translate(55,51)"/>
<path d="M0 0 C0.33 0.66 0.66 1.32 1 2 C-0.07674702 4.28258633 -1.19546116 6.4356434 -2.4375 8.625 C-2.77587891 9.23601563 -3.11425781 9.84703125 -3.46289062 10.4765625 C-4.30146192 11.988353 -5.14982577 13.49470399 -6 15 C-11.54955043 14.42389687 -16.26029497 12.97901452 -21.4375 10.9375 C-22.16904297 10.65583984 -22.90058594 10.37417969 -23.65429688 10.08398438 C-25.43873546 9.39586753 -27.21973905 8.69885394 -29 8 C-26.12462613 6.82594759 -24.95742369 7.01386585 -21.94140625 7.99609375 C-20.26884766 8.70958984 -20.26884766 8.70958984 -18.5625 9.4375 C-12.95596856 12.03083423 -12.95596856 12.03083423 -7 12 C-4.85104874 9.35764173 -4.85104874 9.35764173 -3.1875 6 C-2.58292969 4.88625 -1.97835937 3.7725 -1.35546875 2.625 C-0.68451172 1.325625 -0.68451172 1.325625 0 0 Z " fill="#8DD3EA" transform="translate(118,54)"/>
<path d="M0 0 C0.66 0 1.32 0 2 0 C1.51115895 4.52177969 1.51115895 4.52177969 -0.63671875 6.53125 C-3.52193538 8.32437637 -6.30803501 9.22115715 -9.5625 10.1875 C-10.69816406 10.53167969 -11.83382812 10.87585938 -13.00390625 11.23046875 C-16 12 -16 12 -19 12 C-18.67 11.01 -18.34 10.02 -18 9 C-14.91015625 7.8671875 -14.91015625 7.8671875 -11.0625 6.875 C-6.41480139 5.75035353 -6.41480139 5.75035353 -2 4 C-0.86649466 1.98330173 -0.86649466 1.98330173 0 0 Z " fill="#646877" transform="translate(175,78)"/>
<path d="M0 0 C1.46373047 0.01353516 1.46373047 0.01353516 2.95703125 0.02734375 C4.06111328 0.04474609 4.06111328 0.04474609 5.1875 0.0625 C5.5175 1.0525 5.8475 2.0425 6.1875 3.0625 C5.36507812 3.01609375 4.54265625 2.9696875 3.6953125 2.921875 C-3.30164687 2.69564537 -8.47898637 3.1720456 -14.7890625 6.28515625 C-16.8125 7.0625 -16.8125 7.0625 -19.8125 6.0625 C-18.42172699 5.24136823 -17.02461107 4.43097505 -15.625 3.625 C-14.84769531 3.17253906 -14.07039063 2.72007813 -13.26953125 2.25390625 C-8.87963546 0.12526044 -4.82529015 -0.05813603 0 0 Z " fill="#5F93B0" transform="translate(141.8125,58.9375)"/>
<path d="M0 0 C0.33 0 0.66 0 1 0 C1 10.23 1 20.46 1 31 C0.67 31 0.34 31 0 31 C-0.33885038 28.47980028 -0.67120335 25.95901484 -1 23.4375 C-1.14308594 22.38079102 -1.14308594 22.38079102 -1.2890625 21.30273438 C-1.86666417 16.82632145 -2.09489383 12.51338762 -2 8 C-1.67 8 -1.34 8 -1 8 C-0.67 5.36 -0.34 2.72 0 0 Z " fill="#81A3BA" transform="translate(143,101)"/>
<path d="M0 0 C3.42911255 3.18286659 5.17506063 6.79873701 7.25 10.9375 C7.81460938 12.01161133 7.81460938 12.01161133 8.390625 13.10742188 C8.74125 13.80287109 9.091875 14.49832031 9.453125 15.21484375 C9.77442383 15.84511475 10.09572266 16.47538574 10.42675781 17.12475586 C11.13127748 19.42944734 10.7618195 20.74851791 10 23 C7.33333333 17.66666667 4.66666667 12.33333333 2 7 C1.62987793 6.32163086 1.25975586 5.64326172 0.87841797 4.94433594 C0 3 0 3 0 0 Z " fill="#95D8ED" transform="translate(118,83)"/>
<path d="M0 0 C1.8984375 0.29296875 1.8984375 0.29296875 4 1 C7.11546062 7.35074665 8.0144456 14.04314539 9 21 C8.01 21 7.02 21 6 21 C3 6 3 6 2.52734375 3.07421875 C2.35332031 2.38972656 2.17929688 1.70523438 2 1 C1.34 0.67 0.68 0.34 0 0 Z " fill="#54ABCA" transform="translate(203,67)"/>
<path d="M0 0 C0.99 0.495 0.99 0.495 2 1 C3.25210677 7.63616588 3.10098969 14.2673537 3 21 C2.01 21 1.02 21 0 21 C0 14.07 0 7.14 0 0 Z " fill="#636C7E" transform="translate(137,25)"/>
<path d="M0 0 C0.53625 0.495 1.0725 0.99 1.625 1.5 C-0.685 1.5 -2.995 1.5 -5.375 1.5 C-5.045 2.82 -4.715 4.14 -4.375 5.5 C-6.355 5.5 -8.335 5.5 -10.375 5.5 C-11.035 3.52 -11.695 1.54 -12.375 -0.5 C-8.00924572 -1.84330901 -3.98450792 -2.51653132 0 0 Z " fill="#36AEDF" transform="translate(120.375,69.5)"/>
<path d="M0 0 C0.66 0.33 1.32 0.66 2 1 C1.8584453 4.04192013 1.71190099 7.08346347 1.5625 10.125 C1.52318359 10.9809375 1.48386719 11.836875 1.44335938 12.71875 C1.21843598 17.21721792 0.86459117 21.56806207 0 26 C-0.33 26 -0.66 26 -1 26 C-1.33 22.37 -1.66 18.74 -2 15 C-1.34 15 -0.68 15 0 15 C0 10.05 0 5.1 0 0 Z " fill="#91DAF5" transform="translate(212,95)"/>
<path d="M0 0 C0.66 0.33 1.32 0.66 2 1 C2 3 2 3 0.79296875 4.55078125 C-1.36220519 6.2927628 -2.97895327 6.67719409 -5.6875 7.1875 C-6.49574219 7.34605469 -7.30398437 7.50460938 -8.13671875 7.66796875 C-9.05904297 7.83232422 -9.05904297 7.83232422 -10 8 C-10 7.34 -10 6.68 -10 6 C-7.8828125 4.45703125 -7.8828125 4.45703125 -5.125 2.8125 C-4.22007813 2.26207031 -3.31515625 1.71164063 -2.3828125 1.14453125 C-1.20332031 0.57798828 -1.20332031 0.57798828 0 0 Z " fill="#2A5D7B" transform="translate(123,61)"/>
<path d="M0 0 C2 2 2 2 2.1875 5.9375 C2.16190316 8.67636155 1.88664156 10.34007532 1 13 C0.34 13 -0.32 13 -1 13 C-1.33 13.66 -1.66 14.32 -2 15 C-1.38487182 9.99109914 -0.7282448 4.99367864 0 0 Z " fill="#35BAF4" transform="translate(209,111)"/>
<path d="M0 0 C5.01113235 1.4317521 6.94469549 3.98445693 10 8 C6.45595664 8 5.89732095 7.39010515 3.3125 5.125 C2.68988281 4.59132813 2.06726563 4.05765625 1.42578125 3.5078125 C0 2 0 2 0 0 Z " fill="#749BB7" transform="translate(62,61)"/>
<path d="M0 0 C-2.68841859 2.25245881 -4.64641875 3.88213958 -8 5 C-8.33 4.34 -8.66 3.68 -9 3 C-11.01669827 1.86649466 -11.01669827 1.86649466 -13 1 C-8.60563789 0.14256349 -4.47427924 -0.08948558 0 0 Z " fill="#2F99C8" transform="translate(106,71)"/>
<path d="M0 0 C3.99500618 1.3697164 6.80009492 3.25722422 10 6 C9.67 6.99 9.34 7.98 9 9 C6 6 3 3 0 0 Z " fill="#7B93A8" transform="translate(166,70)"/>
<path d="M0 0 C0.66 0.33 1.32 0.66 2 1 C-0.83430453 4.2542015 -2.68607774 5.5206753 -7 6 C-6 3 -6 3 -3.0625 1.25 C-2.051875 0.8375 -1.04125 0.425 0 0 Z " fill="#3A5A72" transform="translate(131,57)"/>
<path d="M0 0 C5.41538462 -0.36923077 5.41538462 -0.36923077 8.375 1.5 C8.91125 1.995 9.4475 2.49 10 3 C7.69 3 5.38 3 3 3 C3 3.66 3 4.32 3 5 C2.34 5 1.68 5 1 5 C0.67 3.35 0.34 1.7 0 0 Z " fill="#2D93C0" transform="translate(112,68)"/>
<path d="M0 0 C0.66 0.33 1.32 0.66 2 1 C-0.3500189 3.72107452 -2.55674975 4.96702492 -6 6 C-6.99 5.67 -7.98 5.34 -9 5 C-7.54735962 4.1361871 -6.0876837 3.28419546 -4.625 2.4375 C-3.40683594 1.72400391 -3.40683594 1.72400391 -2.1640625 0.99609375 C-1.44992188 0.66738281 -0.73578125 0.33867188 0 0 Z " fill="#438AAD" transform="translate(131,60)"/>
<path d="M0 0 C0.33 0.66 0.66 1.32 1 2 C0.22265625 3.7265625 0.22265625 3.7265625 -0.9375 5.625 C-1.618125 6.73875 -2.29875 7.8525 -3 9 C-5 6 -5 6 -5 4 C-4.0409375 3.8453125 -4.0409375 3.8453125 -3.0625 3.6875 C-2.381875 3.460625 -1.70125 3.23375 -1 3 C-0.67 2.01 -0.34 1.02 0 0 Z " fill="#65BBEF" transform="translate(201,146)"/>
<path d="M0 0 C1.60080151 4.00200378 0.29279692 7.04556236 -1 11 C-2.42944945 8.64561267 -3.08661261 7.51967567 -2.625 4.75 C-2.41875 4.1725 -2.2125 3.595 -2 3 C-1.34 3 -0.68 3 0 3 C0 2.01 0 1.02 0 0 Z " fill="#7DCDF2" transform="translate(210,121)"/>
<path d="M0 0 C0.66 0 1.32 0 2 0 C1.75 2.375 1.75 2.375 1 5 C-1.0625 6.3125 -1.0625 6.3125 -3 7 C-3.33 6.34 -3.66 5.68 -4 5 C-3.34 4.67 -2.68 4.34 -2 4 C-0.86649466 1.98330173 -0.86649466 1.98330173 0 0 Z " fill="#6A7485" transform="translate(175,78)"/>
<path d="M0 0 C4.31392226 0.4793247 6.16569547 1.7457985 9 5 C8.67 5.66 8.34 6.32 8 7 C6.66382648 6.02471263 5.3311249 5.04466681 4 4.0625 C3.2575 3.51722656 2.515 2.97195312 1.75 2.41015625 C1.1725 1.94480469 0.595 1.47945313 0 1 C0 0.67 0 0.34 0 0 Z " fill="#83A8C1" transform="translate(105,111)"/>
<path d="M0 0 C0.99 0.33 1.98 0.66 3 1 C2.34 2.98 1.68 4.96 1 7 C0.01 6.67 -0.98 6.34 -2 6 C-1.34 4.02 -0.68 2.04 0 0 Z " fill="#5898B9" transform="translate(102,91)"/>
</svg>
